<svg enable-background="new 0 0 30 30" viewBox="0 0 30 30" xmlns="http://www.w3.org/2000/svg"><path d="m7.91 14.48c0-.96.19-1.87.56-2.75s.88-1.63 1.51-2.26 1.39-1.14 2.27-1.52 1.8-.57 2.75-.57h1.14c.16.04.23.14.23.28l.05.88c.04 1.27.49 2.35 1.37 3.24s1.94 1.37 3.19 1.42l.82.07c.16 0 .24.08.24.23v.98c.01 1.28-.3 2.47-.93 3.56s-1.48 1.95-2.57 2.59c-1.08.63-2.27.95-3.55.95-.97 0-1.9-.19-2.78-.56s-1.63-.88-2.26-1.51-1.13-1.39-1.5-2.26c-.35-.88-.54-1.8-.54-2.77zm1.83 0c0 .76.15 1.48.45 2.16.3.67.7 1.24 1.19 1.7s1.05.82 1.69 1.08c.63.27 1.28.4 1.94.4.58 0 1.17-.11 1.76-.34s1.14-.55 1.65-.96.94-.93 1.31-1.57.6-1.33.71-2.09c-1.63-.34-2.94-1.04-3.92-2.1s-1.55-2.3-1.7-3.74c-.96.06-1.82.35-2.61.88-.78.53-1.39 1.2-1.82 2.02s-.65 1.67-.65 2.56z"/></svg>