<?xml version="1.0" encoding="utf-8"?><svg width="378" height="378" viewBox="0 0 378 378" xmlns="http://www.w3.org/2000/svg" xmlns:xlink="http://www.w3.org/1999/xlink"><view id="arrow_back" viewBox="0 0 24 24"/><svg width="24" height="24" viewBox="0 0 24 24" xmlns="http://www.w3.org/2000/svg"><path d="M0 0h24v24H0z" fill="none"/><path d="M20 11H7.83l5.59-5.59L12 4l-8 8 8 8 1.41-1.41L7.83 13H20v-2z"/></svg><view id="search" viewBox="24 24 24 24"/><svg width="24" height="24" viewBox="0 0 24 24" x="24" y="24" xmlns="http://www.w3.org/2000/svg"><path d="M15.5 14h-.79l-.28-.27A6.471 6.471 0 0 0 16 9.5 6.5 6.5 0 1 0 9.5 16c1.61 0 3.09-.59 4.23-1.57l.27.28v.79l5 4.99L20.49 19l-4.99-5zm-6 0C7.01 14 5 11.99 5 9.5S7.01 5 9.5 5 14 7.01 14 9.5 11.99 14 9.5 14z"/><path d="M0 0h24v24H0z" fill="none"/></svg><view id="wi-cloud" viewBox="48 48 30 30"/><svg viewBox="0 0 30 30" width="30" height="30" x="48" y="48" xmlns="http://www.w3.org/2000/svg"><path d="M4.61 16.88c0-1.15.36-2.17 1.08-3.07s1.63-1.48 2.74-1.73c.31-1.37 1.02-2.49 2.11-3.37s2.35-1.32 3.76-1.32c1.38 0 2.61.43 3.69 1.28s1.78 1.95 2.1 3.29h.33c.9 0 1.73.22 2.49.65s1.37 1.03 1.81 1.79.67 1.58.67 2.48a4.94 4.94 0 0 1-2.36 4.25c-.73.45-1.54.69-2.41.72H9.41c-1.34-.06-2.47-.57-3.4-1.53-.93-.95-1.4-2.1-1.4-3.44zm1.71 0c0 .87.3 1.62.9 2.26s1.33.98 2.19 1.03H20.6c.86-.04 1.59-.39 2.19-1.03.61-.64.91-1.4.91-2.26 0-.88-.33-1.63-.98-2.27s-1.42-.96-2.32-.96h-1.6c-.11 0-.17-.06-.17-.18l-.07-.57c-.11-1.08-.58-1.99-1.4-2.72s-1.77-1.1-2.86-1.1-2.05.37-2.85 1.1c-.81.73-1.27 1.64-1.37 2.72l-.08.57c0 .12-.07.18-.2.18h-.53c-.84.1-1.54.46-2.1 1.07s-.85 1.33-.85 2.16z"/></svg><view id="wi-cloudy" viewBox="78 78 30 30"/><svg viewBox="0 0 30 30" width="30" height="30" x="78" y="78" xmlns="http://www.w3.org/2000/svg"><path d="M3.89 17.6c0-.99.31-1.88.93-2.65s1.41-1.27 2.38-1.49c.26-1.17.85-2.14 1.78-2.88.93-.75 2-1.12 3.22-1.12 1.18 0 2.24.36 3.16 1.09.93.73 1.53 1.66 1.8 2.8h.27c1.18 0 2.18.41 3.01 1.24s1.25 1.83 1.25 3c0 1.18-.42 2.18-1.25 3.01s-1.83 1.25-3.01 1.25H8.16c-.58 0-1.13-.11-1.65-.34s-.99-.51-1.37-.89-.68-.84-.91-1.36-.34-1.09-.34-1.66zm1.45 0c0 .76.28 1.42.82 1.96s1.21.82 1.99.82h9.28c.77 0 1.44-.27 1.99-.82s.83-1.2.83-1.96-.27-1.42-.83-1.96c-.55-.54-1.21-.82-1.99-.82h-1.39c-.1 0-.15-.05-.15-.15l-.07-.49c-.1-.94-.5-1.73-1.19-2.35s-1.51-.93-2.45-.93-1.76.31-2.46.94c-.7.62-1.09 1.41-1.18 2.34l-.07.42c0 .1-.05.15-.16.15l-.45.07c-.72.06-1.32.36-1.81.89-.46.53-.71 1.16-.71 1.89zm8.85-8.72c-.1.09-.08.16.07.21.43.19.79.37 1.08.55.11.03.19.02.22-.03.61-.57 1.31-.86 2.12-.86s1.5.27 2.1.81c.59.54.92 1.21.99 2l.09.64h1.42c.65 0 1.21.23 1.68.7s.7 1.02.7 1.66c0 .6-.21 1.12-.62 1.57s-.92.7-1.53.77c-.1 0-.15.05-.15.16v1.13c0 .11.05.16.15.16 1.01-.06 1.86-.46 2.55-1.19s1.04-1.6 1.04-2.6c0-1.06-.37-1.96-1.12-2.7-.75-.75-1.65-1.12-2.7-1.12h-.15c-.26-1-.81-1.82-1.65-2.47-.83-.65-1.77-.97-2.8-.97-1.4-.01-2.57.52-3.49 1.58z"/></svg><view id="wi-day-cloudy" viewBox="108 108 30 30"/><svg viewBox="0 0 30 30" width="30" height="30" x="108" y="108" xmlns="http://www.w3.org/2000/svg"><path d="M1.56 16.9c0 .9.22 1.73.66 2.49s1.04 1.36 1.8 1.8 1.58.66 2.47.66h10.83c.89 0 1.72-.22 2.48-.66s1.37-1.04 1.81-1.8.67-1.59.67-2.49c0-.66-.14-1.33-.42-2 .76-.92 1.14-2.03 1.14-3.3 0-.71-.14-1.39-.41-2.04s-.65-1.2-1.12-1.67-1.02-.85-1.67-1.12c-.65-.28-1.33-.41-2.04-.41-1.48 0-2.77.58-3.88 1.74-.77-.44-1.67-.66-2.7-.66-1.41 0-2.65.44-3.73 1.31s-1.78 1.99-2.08 3.35c-1.12.26-2.03.83-2.74 1.73s-1.07 1.92-1.07 3.07zm1.71 0c0-.84.28-1.56.84-2.17s1.26-.96 2.1-1.06l.5-.03c.12 0 .19-.06.19-.18l.07-.54c.14-1.08.61-1.99 1.41-2.71.8-.73 1.74-1.09 2.81-1.09 1.1 0 2.06.37 2.87 1.1a3.99 3.99 0 0 1 1.37 2.71l.07.58c.02.11.09.17.21.17h1.61c.88 0 1.64.32 2.28.96s.96 1.39.96 2.27c0 .91-.32 1.68-.95 2.32s-1.4.96-2.28.96H6.49c-.88 0-1.63-.32-2.27-.97-.63-.65-.95-1.42-.95-2.32zm6.7-12.27c0 .24.08.45.24.63l.66.64c.25.19.46.27.64.25.21 0 .39-.09.55-.26s.24-.38.24-.62-.09-.44-.26-.59l-.59-.66a.888.888 0 0 0-.61-.24c-.24 0-.45.08-.62.25-.17.16-.25.36-.25.6zm5.34 4.43c.69-.67 1.51-1 2.45-1 .99 0 1.83.34 2.52 1.03s1.04 1.52 1.04 2.51c0 .62-.17 1.24-.51 1.84-.97-.96-2.13-1.44-3.49-1.44H17c-.25-1.09-.81-2.07-1.69-2.94zm1.63-5.28c0 .26.08.46.23.62s.35.23.59.23c.26 0 .46-.08.62-.23.16-.16.23-.36.23-.62V1.73c0-.24-.08-.43-.24-.59s-.36-.23-.61-.23c-.24 0-.43.08-.59.23s-.23.35-.23.59zm5.52 2.29c0 .26.07.46.22.62.21.16.42.24.62.24.18 0 .38-.08.59-.24l1.43-1.43c.16-.18.24-.39.24-.64 0-.24-.08-.44-.24-.6s-.36-.24-.59-.24c-.24 0-.43.08-.58.24l-1.47 1.43c-.15.19-.22.39-.22.62zm.79 11.84c0 .24.08.45.25.63l.65.63c.15.16.34.24.58.24s.44-.08.6-.25.24-.37.24-.62c0-.22-.08-.42-.24-.58l-.65-.65a.779.779 0 0 0-.57-.24c-.24 0-.44.08-.6.24-.17.16-.26.36-.26.6zm1.47-6.31c0 .23.09.42.26.58.16.16.37.24.61.24h2.04c.23 0 .42-.08.58-.23s.23-.35.23-.59-.08-.44-.23-.6-.35-.25-.58-.25h-2.04c-.24 0-.44.08-.61.25a.79.79 0 0 0-.26.6z"/></svg><view id="wi-day-rain" viewBox="138 138 30 30"/><svg viewBox="0 0 30 30" width="30" height="30" x="138" y="138" xmlns="http://www.w3.org/2000/svg"><path d="M1.51 16.89c0 1.33.46 2.48 1.39 3.44s2.06 1.47 3.41 1.53c.11 0 .17-.06.17-.17v-1.34c0-.11-.06-.17-.17-.17-.86-.04-1.59-.39-2.19-1.03s-.9-1.4-.9-2.26c0-.82.28-1.54.85-2.16s1.27-.97 2.1-1.07l.53-.05c.13 0 .2-.06.2-.17l.07-.54c.11-1.08.56-1.99 1.37-2.72s1.76-1.1 2.85-1.1 2.04.37 2.86 1.1 1.28 1.64 1.4 2.72l.07.57c0 .12.06.19.17.19h1.62c.89 0 1.65.32 2.3.96s.97 1.39.97 2.27c0 .87-.3 1.62-.9 2.26s-1.33.98-2.18 1.03c-.12 0-.19.06-.19.17v1.34c0 .11.06.17.19.17 1.33-.04 2.46-.55 3.39-1.51.93-.97 1.39-2.12 1.39-3.45 0-.72-.14-1.39-.42-2.01.78-.97 1.17-2.07 1.17-3.31 0-.95-.24-1.83-.71-2.64s-1.11-1.45-1.92-1.92-1.68-.7-2.62-.7c-1.56 0-2.85.58-3.88 1.74-.82-.44-1.72-.66-2.71-.66-1.41 0-2.67.44-3.76 1.32s-1.79 2-2.1 3.36c-1.11.26-2.02.84-2.74 1.74s-1.08 1.92-1.08 3.07zm5.4 6.86c0 .17.05.33.16.49s.27.27.49.33c.11.02.2.04.27.04.39 0 .65-.21.77-.64l1.58-5.88c.07-.24.04-.46-.08-.67s-.3-.33-.53-.38a.737.737 0 0 0-.63.07c-.2.11-.34.28-.41.51l-1.58 5.91c-.02.13-.04.2-.04.22zm2.61 3.08c0 .19.05.36.15.52s.27.26.52.3c.11.02.2.04.26.04.16 0 .31-.06.45-.17.14-.12.23-.28.27-.48l2.4-8.93c.06-.23.04-.45-.07-.64s-.28-.33-.5-.4a.777.777 0 0 0-.65.07c-.2.11-.34.28-.4.51l-2.4 8.93c-.02.15-.03.24-.03.25zM9.94 4.6c0 .24.08.44.25.61l.65.66c.19.15.4.22.62.22.21 0 .41-.08.58-.23.17-.16.26-.35.26-.59s-.08-.46-.24-.64l-.64-.65a.854.854 0 0 0-1.22.01c-.17.17-.26.38-.26.61zm3.73 19.17a.822.822 0 0 0 .61.79c.11.02.2.04.25.04.17 0 .34-.05.49-.15s.25-.26.3-.49l1.58-5.88a.835.835 0 0 0-.57-1.04.773.773 0 0 0-.65.07.78.78 0 0 0-.39.51l-1.58 5.91c-.02.15-.04.23-.04.24zM15.3 9.03c.71-.67 1.53-1 2.48-1 .98 0 1.82.35 2.5 1.04.69.69 1.03 1.53 1.03 2.52 0 .62-.17 1.24-.52 1.85-.97-.97-2.13-1.45-3.49-1.45h-.33a5.763 5.763 0 0 0-1.67-2.96zm1.62-5.25c0 .23.08.43.25.59s.37.24.61.24c.23 0 .43-.08.59-.23.16-.16.24-.35.24-.59V1.73c0-.26-.08-.47-.23-.63a.791.791 0 0 0-.59-.24c-.25 0-.46.08-.62.25s-.24.37-.24.62v2.05zm5.53 2.28c0 .24.09.44.27.59.14.16.32.24.55.26s.44-.07.62-.26l1.44-1.43c.18-.17.26-.38.26-.63 0-.24-.08-.45-.25-.61s-.37-.24-.61-.24c-.21 0-.4.08-.58.25l-1.43 1.44c-.18.17-.27.38-.27.63zm.81 11.85c0 .24.08.45.24.63l.65.63c.18.14.38.21.6.21l.02.02c.23 0 .42-.08.58-.24s.24-.37.24-.61-.09-.43-.26-.58l-.62-.66c-.18-.16-.39-.24-.62-.24s-.43.08-.59.25-.24.35-.24.59zm1.46-6.33c0 .24.09.43.26.59.18.18.38.26.62.26h2.03c.24 0 .44-.08.61-.25s.25-.37.25-.6c0-.24-.08-.44-.25-.61s-.37-.26-.61-.26H25.6c-.24 0-.44.09-.62.26s-.26.37-.26.61z"/></svg><view id="wi-day-sunny" viewBox="168 168 30 30"/><svg viewBox="0 0 30 30" width="30" height="30" x="168" y="168" xmlns="http://www.w3.org/2000/svg"><path d="M4.37 14.62c0-.24.08-.45.25-.62.17-.16.38-.24.6-.24h2.04c.23 0 .42.08.58.25.15.17.23.37.23.61s-.07.44-.22.61-.35.25-.58.25H5.23c-.23 0-.43-.08-.6-.25s-.26-.37-.26-.61zm2.86 6.93c0-.23.08-.43.23-.61l1.47-1.43c.15-.16.35-.23.59-.23s.44.08.6.23.24.34.24.57c0 .24-.08.46-.24.64L8.7 22.14c-.41.32-.82.32-1.23 0a.807.807 0 0 1-.24-.59zm0-13.84c0-.23.08-.43.23-.61.2-.17.41-.25.64-.25.22 0 .42.08.59.24l1.43 1.47c.16.15.24.35.24.59s-.08.44-.24.6-.36.24-.6.24-.44-.08-.59-.24L7.47 8.32a.837.837 0 0 1-.24-.61zm2.55 6.91c0-.93.23-1.8.7-2.6s1.1-1.44 1.91-1.91 1.67-.7 2.6-.7c.7 0 1.37.14 2.02.42.64.28 1.2.65 1.66 1.12.47.47.84 1.02 1.11 1.66s.41 1.32.41 2.02c0 .94-.23 1.81-.7 2.61s-1.1 1.43-1.9 1.9-1.67.7-2.61.7-1.81-.23-2.61-.7-1.43-1.1-1.9-1.9c-.45-.81-.69-1.68-.69-2.62zm1.7 0c0 .98.34 1.81 1.03 2.5.68.69 1.51 1.04 2.49 1.04s1.81-.35 2.5-1.04 1.04-1.52 1.04-2.5c0-.96-.35-1.78-1.04-2.47-.69-.68-1.52-1.02-2.5-1.02-.97 0-1.8.34-2.48 1.02-.7.69-1.04 1.51-1.04 2.47zm2.66 7.78c0-.24.08-.44.25-.6s.37-.24.6-.24c.24 0 .45.08.61.24s.24.36.24.6v1.99c0 .24-.08.45-.25.62s-.37.25-.6.25-.44-.08-.6-.25a.845.845 0 0 1-.25-.62zm0-15.5V4.86c0-.23.08-.43.25-.6S14.76 4 15 4s.43.08.6.25.25.37.25.6V6.9c0 .23-.08.42-.25.58s-.37.23-.6.23-.44-.08-.6-.23-.26-.35-.26-.58zm5.52 13.18c0-.23.08-.42.23-.56.15-.16.34-.23.56-.23.24 0 .44.08.6.23l1.46 1.43c.16.17.24.38.24.61s-.08.43-.24.59c-.4.31-.8.31-1.2 0l-1.42-1.42a.974.974 0 0 1-.23-.65zm0-10.92c0-.25.08-.45.23-.59l1.42-1.47a.84.84 0 0 1 .59-.24c.24 0 .44.08.6.25.17.17.25.37.25.6 0 .25-.08.46-.24.62l-1.46 1.43c-.18.16-.38.24-.6.24-.23 0-.41-.08-.56-.24s-.23-.36-.23-.6zm2.26 5.46c0-.24.08-.44.24-.62.16-.16.35-.24.57-.24h2.02c.23 0 .43.09.6.26s.26.37.26.6-.09.43-.26.6-.37.25-.6.25h-2.02c-.23 0-.43-.08-.58-.25s-.23-.36-.23-.6z"/></svg><view id="wi-fog" viewBox="198 198 30 30"/><svg viewBox="0 0 30 30" width="30" height="30" x="198" y="198" xmlns="http://www.w3.org/2000/svg"><path d="M2.62 21.05c0-.24.08-.45.25-.61s.38-.24.63-.24h18.67a.821.821 0 0 1 .85.85c0 .23-.08.43-.25.58-.17.16-.37.23-.6.23H3.5c-.25 0-.46-.08-.63-.23a.758.758 0 0 1-.25-.58zm2.62-3.14c0-.24.09-.44.26-.6.15-.15.35-.23.59-.23h18.67c.23 0 .42.08.58.24s.23.35.23.59-.08.44-.23.6c-.16.17-.35.25-.58.25H6.09c-.24 0-.44-.08-.6-.25a.816.816 0 0 1-.25-.6zm.13-2.39c0 .09.05.13.15.13h1.43c.06 0 .13-.05.2-.16.24-.52.59-.94 1.06-1.27s.99-.52 1.55-.56l.55-.07c.11 0 .17-.06.17-.18l.07-.5c.11-1.08.56-1.98 1.37-2.7s1.76-1.08 2.85-1.08c1.08 0 2.02.36 2.83 1.07.8.71 1.26 1.61 1.37 2.68l.08.57c0 .11.07.17.2.17h1.59c.64 0 1.23.17 1.76.52s.92.8 1.18 1.37c.07.11.14.16.21.16h1.43c.12 0 .17-.07.14-.23-.29-1.02-.88-1.86-1.74-2.51-.87-.65-1.86-.97-2.97-.97h-.32c-.33-1.33-1.03-2.42-2.1-3.27s-2.28-1.27-3.65-1.27c-1.4 0-2.64.44-3.73 1.32s-1.78 2-2.09 3.36c-.85.2-1.6.6-2.24 1.21s-1.09 1.33-1.34 2.18v-.04c-.01 0-.01.03-.01.07zm1.61 8.59c0-.24.09-.43.26-.59.15-.15.35-.23.6-.23h18.68c.24 0 .44.08.6.23.17.16.25.35.25.58 0 .24-.08.44-.25.61s-.37.25-.6.25H7.84c-.23 0-.43-.09-.6-.26a.773.773 0 0 1-.26-.59z"/></svg><view id="wi-night-alt-cloudy" viewBox="228 228 30 30"/><svg viewBox="0 0 30 30" width="30" height="30" x="228" y="228" xmlns="http://www.w3.org/2000/svg"><path d="M4.14 16.9c0-1.16.35-2.18 1.06-3.08s1.62-1.47 2.74-1.72c.23-1.03.7-1.93 1.4-2.7s1.55-1.32 2.53-1.65c.62-.21 1.26-.32 1.93-.32.81 0 1.6.16 2.35.48.28-.47.61-.88.99-1.22s.77-.61 1.17-.79.8-.32 1.18-.41.76-.13 1.12-.13c.38 0 .79.05 1.23.16l.82.25c.14.06.18.13.14.22l-.14.6c-.07.31-.1.6-.1.86 0 .31.05.63.15.95s.24.63.44.94c.19.31.46.58.8.83s.72.44 1.15.57l.62.22c.1.03.15.08.15.16 0 .02-.01.04-.02.07l-.18.67c-.27 1.08-.78 1.93-1.5 2.57.4.7.62 1.45.65 2.24.01.05.01.12.01.23 0 .89-.22 1.72-.67 2.48-.44.76-1.05 1.36-1.8 1.8-.76.44-1.59.67-2.48.67H9.07c-.89 0-1.72-.22-2.48-.67s-1.35-1.05-1.79-1.8-.66-1.58-.66-2.48zm1.71 0c0 .89.32 1.66.96 2.31s1.39.98 2.26.98h10.81c.89 0 1.65-.32 2.28-.97s.95-1.42.95-2.32c0-.88-.32-1.63-.96-2.26s-1.4-.95-2.28-.95h-1.78l-.1-.75c-.1-1.01-.52-1.88-1.26-2.59s-1.62-1.11-2.63-1.2c-.03 0-.08 0-.15-.01s-.11-.01-.15-.01c-.51 0-1.02.1-1.54.29V9.4c-.73.28-1.35.74-1.84 1.37-.5.63-.8 1.35-.9 2.17l-.07.72-.68.03c-.84.1-1.54.45-2.1 1.06s-.82 1.32-.82 2.15zM17.6 8.79c1.06.91 1.72 1.97 1.97 3.18h.32c1.24 0 2.3.39 3.17 1.18.33-.31.58-.67.76-1.07a4.95 4.95 0 0 1-2.16-1.97c-.52-.88-.79-1.81-.79-2.78v-.24c-.05-.01-.13-.01-.24-.01-.58-.01-1.15.13-1.7.44-.55.3-1 .72-1.33 1.27z"/></svg><view id="wi-night-clear" viewBox="258 258 30 30"/><svg viewBox="0 0 30 30" width="30" height="30" x="258" y="258" xmlns="http://www.w3.org/2000/svg"><path d="M7.91 14.48c0-.96.19-1.87.56-2.75s.88-1.63 1.51-2.26 1.39-1.14 2.27-1.52 1.8-.57 2.75-.57h1.14c.16.04.23.14.23.28l.05.88c.04 1.27.49 2.35 1.37 3.24s1.94 1.37 3.19 1.42l.82.07c.16 0 .24.08.24.23v.98c.01 1.28-.3 2.47-.93 3.56s-1.48 1.95-2.57 2.59c-1.08.63-2.27.95-3.55.95-.97 0-1.9-.19-2.78-.56s-1.63-.88-2.26-1.51-1.13-1.39-1.5-2.26c-.35-.88-.54-1.8-.54-2.77zm1.83 0c0 .76.15 1.48.45 2.16.3.67.7 1.24 1.19 1.7s1.05.82 1.69 1.08a4.823 4.823 0 0 0 3.7.06c.59-.23 1.14-.55 1.65-.96s.94-.93 1.31-1.57.6-1.33.71-2.09c-1.63-.34-2.94-1.04-3.92-2.1s-1.55-2.3-1.7-3.74c-.96.06-1.82.35-2.61.88-.78.53-1.39 1.2-1.82 2.02s-.65 1.67-.65 2.56z"/></svg><view id="wi-rain" viewBox="288 288 30 30"/><svg viewBox="0 0 30 30" width="30" height="30" x="288" y="288" xmlns="http://www.w3.org/2000/svg"><path d="M4.64 16.91c0-1.15.36-2.17 1.08-3.07s1.63-1.47 2.73-1.73c.31-1.36 1.02-2.48 2.11-3.36s2.34-1.31 3.75-1.31c1.38 0 2.6.43 3.68 1.28s1.78 1.95 2.1 3.29h.32c.89 0 1.72.22 2.48.65s1.37 1.03 1.81 1.78.67 1.58.67 2.47c0 .88-.21 1.69-.63 2.44s-1 1.35-1.73 1.8-1.53.69-2.4.71c-.13 0-.2-.06-.2-.17v-1.33c0-.12.07-.18.2-.18.85-.04 1.58-.38 2.18-1.02s.9-1.39.9-2.26-.33-1.62-.98-2.26-1.42-.96-2.31-.96h-1.61c-.12 0-.18-.06-.18-.17l-.08-.58a4.076 4.076 0 0 0-1.39-2.71c-.82-.73-1.76-1.09-2.85-1.09s-2.05.36-2.85 1.09a4.02 4.02 0 0 0-1.36 2.71l-.07.53c0 .12-.07.19-.2.19l-.53.03c-.83.1-1.53.46-2.1 1.07s-.85 1.33-.85 2.16c0 .87.3 1.62.9 2.26s1.33.98 2.18 1.02c.11 0 .17.06.17.18v1.33c0 .11-.06.17-.17.17-1.34-.06-2.47-.57-3.4-1.53s-1.37-2.1-1.37-3.43zm5.35 6.69c0-.04.01-.11.04-.2l1.63-5.77a.837.837 0 0 1 1.02-.56c.24.04.42.17.54.37s.15.42.08.67l-1.63 5.73c-.12.43-.4.64-.82.64-.04 0-.07-.01-.11-.02-.06-.02-.09-.03-.1-.03a.831.831 0 0 1-.49-.33.895.895 0 0 1-.16-.5zm2.62 2.81l2.44-8.77c.04-.19.14-.34.3-.44s.32-.15.49-.15c.09 0 .18.01.27.03.22.06.38.19.49.39s.13.41.07.64l-2.43 8.78c-.04.17-.13.31-.29.43s-.32.18-.51.18c-.09 0-.18-.02-.25-.05-.2-.05-.37-.18-.52-.39-.11-.18-.13-.39-.06-.65zm4.13-2.79c0-.04.01-.11.04-.23l1.63-5.77a.83.83 0 0 1 .3-.44c.15-.1.3-.15.46-.15.08 0 .17.01.26.03.21.06.36.16.46.31s.15.31.15.47c0 .03-.01.08-.02.14s-.02.1-.02.12l-1.63 5.73c-.04.19-.13.35-.28.46s-.32.17-.51.17l-.24-.05a.809.809 0 0 1-.46-.32.916.916 0 0 1-.14-.47z"/></svg><view id="wi-snow" viewBox="318 318 30 30"/><svg viewBox="0 0 30 30" width="30" height="30" x="318" y="318" xmlns="http://www.w3.org/2000/svg"><path d="M4.64 16.95c0-1.16.35-2.18 1.06-3.08s1.62-1.48 2.74-1.76c.31-1.36 1.01-2.48 2.1-3.36s2.34-1.31 3.75-1.31c1.38 0 2.6.43 3.68 1.28s1.78 1.95 2.1 3.29h.32c.89 0 1.72.22 2.48.66s1.37 1.04 1.81 1.8.67 1.59.67 2.48c0 1.32-.46 2.47-1.39 3.42-.92.96-2.05 1.46-3.38 1.5-.13 0-.2-.06-.2-.17v-1.33c0-.12.07-.18.2-.18.85-.04 1.58-.38 2.18-1.02s.9-1.38.9-2.23c0-.89-.32-1.65-.97-2.3s-1.42-.97-2.32-.97h-1.61c-.12 0-.18-.06-.18-.17l-.08-.58c-.11-1.08-.58-1.99-1.39-2.72-.82-.73-1.76-1.1-2.85-1.1-1.1 0-2.05.37-2.86 1.11s-1.27 1.65-1.37 2.75l-.06.5c0 .12-.07.19-.2.19l-.53.07c-.83.07-1.53.41-2.1 1.04s-.85 1.35-.85 2.19c0 .85.3 1.59.9 2.23s1.33.97 2.18 1.02c.11 0 .17.06.17.18v1.33c0 .11-.06.17-.17.17-1.34-.04-2.47-.54-3.4-1.5-.87-.96-1.33-2.11-1.33-3.43zM11 21.02c0-.22.08-.42.24-.58s.35-.24.59-.24c.23 0 .43.08.59.24s.24.36.24.58c0 .24-.08.44-.24.6-.16.17-.35.25-.59.25-.23 0-.43-.08-.59-.25a.814.814 0 0 1-.24-.6zm0 3.63c0-.24.08-.44.24-.6.16-.15.35-.23.58-.23s.43.08.59.23c.16.16.24.35.24.59s-.08.43-.24.59-.35.23-.59.23a.84.84 0 0 1-.59-.23.8.8 0 0 1-.23-.58zm3.19-1.7c0-.23.08-.44.25-.62.16-.16.35-.24.57-.24.23 0 .43.09.6.26s.26.37.26.6-.08.43-.25.6-.37.25-.61.25c-.23 0-.42-.08-.58-.25s-.24-.37-.24-.6zm0-3.62c0-.23.08-.43.25-.6.18-.16.37-.24.57-.24.24 0 .44.08.61.25s.25.36.25.6c0 .23-.08.43-.25.59s-.37.24-.61.24c-.23 0-.42-.08-.58-.24a.847.847 0 0 1-.24-.6zm0 7.28c0-.23.08-.43.25-.61.16-.16.35-.24.57-.24.24 0 .44.08.61.25s.25.37.25.6-.08.43-.25.59-.37.24-.61.24a.824.824 0 0 1-.82-.83zm3.22-5.59c0-.22.08-.41.25-.58s.37-.25.6-.25.43.08.59.24.24.36.24.58c0 .24-.08.44-.24.6-.16.17-.35.25-.59.25s-.44-.08-.6-.25a.816.816 0 0 1-.25-.59zm0 3.63c0-.22.08-.42.25-.6.16-.15.36-.23.6-.23s.43.08.59.23.23.35.23.59-.08.43-.23.59c-.16.16-.35.23-.59.23s-.44-.08-.6-.24a.756.756 0 0 1-.25-.57z"/></svg><view id="wi-thunderstorm" viewBox="348 348 30 30"/><svg viewBox="0 0 30 30" width="30" height="30" x="348" y="348" xmlns="http://www.w3.org/2000/svg"><path d="M4.63 16.91c0 1.11.33 2.1.99 2.97s1.52 1.47 2.58 1.79l-.66 1.68c-.03.14.02.22.14.22h2.13l-.98 4.3h.28l3.92-5.75c.04-.04.04-.09.01-.14s-.08-.07-.15-.07h-2.18l2.48-4.64c.07-.14.02-.22-.14-.22h-2.94c-.09 0-.17.05-.23.15l-1.07 2.87c-.71-.18-1.3-.57-1.77-1.16s-.7-1.26-.7-2.01c0-.83.28-1.55.85-2.17.57-.61 1.27-.97 2.1-1.07l.53-.07c.13 0 .2-.06.2-.18l.07-.51c.11-1.08.56-1.99 1.37-2.72s1.76-1.1 2.85-1.1 2.04.37 2.85 1.1c.82.73 1.28 1.64 1.4 2.72l.07.58c0 .11.06.17.18.17h1.6c.91 0 1.68.32 2.32.95s.97 1.4.97 2.28c0 .85-.3 1.59-.89 2.21s-1.33.97-2.2 1.04c-.13 0-.2.06-.2.18v1.37c0 .11.07.17.2.17 1.33-.04 2.46-.55 3.39-1.51s1.39-2.11 1.39-3.45c0-.9-.22-1.73-.67-2.49a4.884 4.884 0 0 0-1.81-1.8c-.77-.44-1.6-.66-2.5-.66h-.31c-.33-1.33-1.04-2.42-2.11-3.26s-2.3-1.27-3.68-1.27c-1.41 0-2.67.44-3.76 1.31s-1.79 1.99-2.1 3.36c-1.11.26-2.02.83-2.74 1.73s-1.08 1.95-1.08 3.1zm8.14 9.71c0 .39.19.65.58.77.01 0 .05 0 .11.01s.11.01.14.01c.17 0 .33-.05.49-.15s.27-.26.32-.48l2.25-8.69c.06-.24.04-.45-.07-.65a.827.827 0 0 0-.5-.39l-.26-.03c-.16 0-.32.05-.47.15s-.26.25-.31.45l-2.26 8.72c-.01.1-.02.19-.02.28zm4.16-3.06c0 .13.03.26.1.38.14.22.31.37.51.44.11.03.21.05.3.05s.2-.02.32-.08c.21-.09.35-.28.42-.57l1.44-5.67c.03-.14.05-.23.05-.27 0-.15-.05-.3-.16-.45s-.26-.26-.46-.32l-.26-.03c-.17 0-.33.05-.47.15s-.24.25-.3.45l-1.46 5.7c0 .02 0 .05-.01.11-.02.05-.02.08-.02.11z"/></svg></svg>